<svg width="146" height="78" viewBox="0 0 146 78" fill="none" xmlns="http://www.w3.org/2000/svg">
<path d="M89.272 44H77.488C77.408 44 77.344 43.976 77.296 43.928C77.248 43.88 77.224 43.816 77.224 43.736V40.496C77.896 39.696 78.552 38.896 79.192 38.096C79.832 37.296 80.48 36.496 81.136 35.696C81.808 34.88 82.48 34.056 83.152 33.224C83.376 32.936 83.592 32.68 83.8 32.456C84.024 32.216 84.232 32.008 84.424 31.832C84.632 31.656 84.84 31.488 85.048 31.328C85.272 31.168 85.504 31.016 85.744 30.872C85.984 30.712 86.24 30.552 86.512 30.392L85.888 31.328V29.672L86.272 30.272C85.36 30.272 84.584 30.272 83.944 30.272C83.32 30.272 82.776 30.272 82.312 30.272C81.848 30.272 81.384 30.272 80.92 30.272H80.104C79.64 30.272 79.232 30.208 78.88 30.08C78.544 29.936 78.256 29.736 78.016 29.48C77.776 29.224 77.6 28.904 77.488 28.52C77.376 28.136 77.312 27.696 77.296 27.2H88.912C88.976 27.2 89.024 27.216 89.056 27.248C89.088 27.264 89.112 27.288 89.128 27.32C89.16 27.352 89.176 27.4 89.176 27.464V30.704C88.616 31.376 88.024 32.088 87.4 32.84C86.776 33.592 86.128 34.376 85.456 35.192C84.8 36.008 84.128 36.856 83.44 37.736C83.184 38.072 82.944 38.36 82.72 38.6C82.496 38.84 82.272 39.056 82.048 39.248C81.84 39.44 81.624 39.624 81.4 39.8C81.192 39.96 80.968 40.12 80.728 40.28C80.488 40.424 80.224 40.592 79.936 40.784L80.536 39.896V41.552L80.152 40.928C81.064 40.928 81.92 40.928 82.72 40.928C83.52 40.928 84.264 40.928 84.952 40.928C85.656 40.928 86.296 40.928 86.872 40.928H89.008C89.088 40.928 89.152 40.952 89.2 41C89.248 41.048 89.272 41.112 89.272 41.192C89.272 41.656 89.272 42.128 89.272 42.608C89.272 43.072 89.272 43.536 89.272 44ZM80.344 31.616C79.864 31.616 79.408 31.616 78.976 31.616C78.544 31.616 78.072 31.616 77.56 31.616C77.512 31.616 77.464 31.608 77.416 31.592C77.384 31.56 77.352 31.528 77.32 31.496C77.304 31.448 77.296 31.4 77.296 31.352C77.296 31.08 77.296 30.768 77.296 30.416C77.296 30.064 77.296 29.688 77.296 29.288C77.296 28.888 77.296 28.512 77.296 28.16C77.296 27.792 77.296 27.472 77.296 27.2C78.112 27.2 78.736 27.288 79.168 27.464C79.616 27.624 79.92 27.896 80.08 28.28C80.256 28.664 80.344 29.168 80.344 29.792C80.344 29.952 80.344 30.144 80.344 30.368C80.344 30.592 80.344 30.816 80.344 31.04C80.344 31.264 80.344 31.456 80.344 31.616ZM97.4099 30.8C98.0019 30.8 98.5219 30.84 98.9699 30.92C99.4179 30.984 99.7779 31.072 100.05 31.184C100.338 31.28 100.53 31.376 100.626 31.472C100.658 31.488 100.674 31.52 100.674 31.568C100.69 31.6 100.698 31.64 100.698 31.688C100.698 32.136 100.698 32.592 100.698 33.056C100.698 33.52 100.698 33.984 100.698 34.448H100.242C99.8099 34.256 99.3619 34.112 98.8979 34.016C98.4339 33.92 97.9299 33.872 97.3859 33.872C96.8579 33.872 96.3859 33.976 95.9699 34.184C95.5539 34.376 95.2339 34.688 95.0099 35.12C94.7859 35.552 94.6739 36.112 94.6739 36.8V38.312C94.6739 38.824 94.7379 39.272 94.8659 39.656C94.9939 40.024 95.1939 40.328 95.4659 40.568C95.6899 40.792 95.9619 40.96 96.2819 41.072C96.6019 41.168 96.9699 41.216 97.3859 41.216C97.7539 41.216 98.0979 41.2 98.4179 41.168C98.7379 41.12 99.0499 41.056 99.3539 40.976C99.6579 40.896 99.9539 40.792 100.242 40.664H100.698C100.698 41.128 100.698 41.592 100.698 42.056C100.698 42.52 100.698 42.984 100.698 43.448C100.698 43.48 100.69 43.512 100.674 43.544C100.674 43.576 100.658 43.608 100.626 43.64C100.546 43.72 100.362 43.816 100.074 43.928C99.8019 44.024 99.4339 44.104 98.9699 44.168C98.5219 44.248 98.0019 44.288 97.4099 44.288C96.4499 44.288 95.5939 44.16 94.8419 43.904C94.0899 43.648 93.4499 43.272 92.9219 42.776C92.3939 42.264 91.9939 41.648 91.7219 40.928C91.4499 40.208 91.3139 39.392 91.3139 38.48V36.752C91.3139 35.568 91.5699 34.536 92.0819 33.656C92.5939 32.76 93.3059 32.064 94.2179 31.568C95.1299 31.056 96.1939 30.8 97.4099 30.8ZM109.122 30.8C109.986 30.8 110.77 30.936 111.474 31.208C112.194 31.48 112.81 31.864 113.322 32.36C113.834 32.84 114.226 33.416 114.498 34.088C114.786 34.76 114.93 35.504 114.93 36.32V38.744C114.93 39.832 114.682 40.792 114.186 41.624C113.706 42.456 113.026 43.112 112.146 43.592C111.282 44.056 110.274 44.288 109.122 44.288C108.258 44.288 107.466 44.152 106.746 43.88C106.042 43.608 105.434 43.232 104.922 42.752C104.41 42.256 104.01 41.672 103.722 41C103.45 40.328 103.314 39.584 103.314 38.768V36.344C103.314 35.256 103.554 34.296 104.034 33.464C104.53 32.632 105.218 31.984 106.098 31.52C106.978 31.04 107.986 30.8 109.122 30.8ZM109.146 33.752C108.602 33.752 108.138 33.864 107.754 34.088C107.37 34.296 107.074 34.608 106.866 35.024C106.658 35.424 106.554 35.912 106.554 36.488V38.6C106.554 39.048 106.618 39.448 106.746 39.8C106.874 40.136 107.05 40.432 107.274 40.688C107.482 40.896 107.738 41.056 108.042 41.168C108.362 41.28 108.714 41.336 109.098 41.336C109.642 41.336 110.106 41.232 110.49 41.024C110.89 40.8 111.186 40.48 111.378 40.064C111.586 39.648 111.69 39.16 111.69 38.6V36.488C111.69 35.992 111.634 35.576 111.522 35.24C111.41 34.888 111.242 34.6 111.018 34.376C110.81 34.152 110.546 33.992 110.226 33.896C109.922 33.8 109.562 33.752 109.146 33.752ZM121.689 30.8C122.249 30.8 122.745 30.888 123.177 31.064C123.609 31.224 123.993 31.456 124.329 31.76C124.665 32.064 124.953 32.432 125.193 32.864H126.009V35.72C125.529 35.128 125.009 34.688 124.449 34.4C123.889 34.096 123.329 33.944 122.769 33.944C122.385 33.944 122.057 34.024 121.785 34.184C121.513 34.344 121.305 34.584 121.161 34.904C121.017 35.208 120.945 35.584 120.945 36.032V39.032C120.945 39.416 120.985 39.744 121.065 40.016C121.161 40.288 121.289 40.496 121.449 40.64C121.593 40.8 121.777 40.92 122.001 41C122.225 41.064 122.481 41.096 122.769 41.096C123.137 41.096 123.505 41.04 123.873 40.928C124.241 40.8 124.601 40.6 124.953 40.328C125.321 40.056 125.673 39.704 126.009 39.272V42.128H125.193C124.937 42.56 124.625 42.936 124.257 43.256C123.905 43.576 123.513 43.824 123.081 44C122.649 44.16 122.185 44.24 121.689 44.24C121.081 44.24 120.529 44.136 120.033 43.928C119.553 43.72 119.137 43.416 118.785 43.016C118.449 42.616 118.185 42.128 117.993 41.552C117.801 40.976 117.705 40.32 117.705 39.584V35.504C117.705 34.768 117.801 34.112 117.993 33.536C118.185 32.944 118.449 32.448 118.785 32.048C119.137 31.648 119.561 31.344 120.057 31.136C120.553 30.912 121.097 30.8 121.689 30.8ZM128.625 26C128.689 26 128.737 26.016 128.769 26.048C128.801 26.064 128.825 26.088 128.841 26.12C128.873 26.152 128.889 26.2 128.889 26.264C128.889 27.448 128.889 28.648 128.889 29.864C128.889 31.064 128.889 32.272 128.889 33.488C128.889 34.688 128.889 35.88 128.889 37.064C128.889 38.248 128.889 39.424 128.889 40.592C128.889 41.184 128.889 41.76 128.889 42.32C128.889 42.88 128.889 43.44 128.889 44C128.649 44 128.401 44 128.145 44C127.905 44 127.657 44 127.401 44C127.145 44 126.889 44 126.633 44C126.393 44 126.153 44 125.913 44C125.865 44 125.817 43.992 125.769 43.976C125.737 43.944 125.705 43.912 125.673 43.88C125.657 43.848 125.649 43.8 125.649 43.736C125.649 42.456 125.649 41.176 125.649 39.896C125.649 38.616 125.649 37.344 125.649 36.08C125.649 34.8 125.649 33.52 125.649 32.24C125.649 30.96 125.649 29.68 125.649 28.4C125.649 28 125.649 27.6 125.649 27.2C125.649 26.8 125.649 26.4 125.649 26C125.889 26 126.129 26 126.369 26C126.625 26 126.881 26 127.137 26C127.393 26 127.641 26 127.881 26C128.137 26 128.385 26 128.625 26ZM137.951 30.8C139.039 30.8 139.983 31.024 140.783 31.472C141.599 31.92 142.231 32.544 142.679 33.344C143.127 34.144 143.351 35.08 143.351 36.152V38.144C143.351 38.192 143.343 38.24 143.327 38.288C143.311 38.32 143.279 38.344 143.231 38.36C143.199 38.376 143.159 38.384 143.111 38.384H137.591C137.319 38.384 137.039 38.384 136.751 38.384C136.479 38.384 136.207 38.384 135.935 38.384H134.951L134.879 36.368H140.207C140.207 36.304 140.207 36.248 140.207 36.2C140.207 36.152 140.207 36.096 140.207 36.032C140.207 35.568 140.159 35.176 140.063 34.856C139.967 34.52 139.815 34.256 139.607 34.064C139.431 33.872 139.207 33.736 138.935 33.656C138.663 33.576 138.335 33.536 137.951 33.536C137.151 33.536 136.551 33.736 136.151 34.136C135.767 34.52 135.575 35.152 135.575 36.032V38.96C135.575 39.344 135.623 39.688 135.719 39.992C135.831 40.28 135.983 40.528 136.175 40.736C136.431 40.992 136.767 41.176 137.183 41.288C137.615 41.4 138.111 41.456 138.671 41.456C139.247 41.456 139.759 41.432 140.207 41.384C140.655 41.32 141.071 41.24 141.455 41.144C141.839 41.032 142.215 40.912 142.583 40.784H143.039C143.039 41.184 143.039 41.592 143.039 42.008C143.039 42.408 143.039 42.816 143.039 43.232C143.039 43.264 143.031 43.296 143.015 43.328C142.999 43.36 142.975 43.392 142.943 43.424C142.815 43.552 142.527 43.68 142.079 43.808C141.647 43.936 141.119 44.048 140.495 44.144C139.887 44.24 139.263 44.288 138.623 44.288C137.583 44.288 136.663 44.168 135.863 43.928C135.079 43.672 134.423 43.312 133.895 42.848C133.383 42.384 132.991 41.824 132.719 41.168C132.463 40.496 132.335 39.744 132.335 38.912V36.176C132.335 35.36 132.463 34.624 132.719 33.968C132.991 33.312 133.375 32.752 133.871 32.288C134.367 31.808 134.959 31.44 135.647 31.184C136.335 30.928 137.103 30.8 137.951 30.8ZM80.56 68C80.064 68 79.568 68 79.072 68C78.576 68 78.072 68 77.56 68C77.512 68 77.464 67.992 77.416 67.976C77.384 67.944 77.352 67.912 77.32 67.88C77.304 67.832 77.296 67.784 77.296 67.736C77.296 66.568 77.296 65.4 77.296 64.232C77.296 63.064 77.296 61.904 77.296 60.752C77.296 59.584 77.296 58.416 77.296 57.248C77.296 56.064 77.296 54.896 77.296 53.744C77.296 53.312 77.296 52.888 77.296 52.472C77.296 52.04 77.296 51.616 77.296 51.2C77.648 51.2 78.04 51.2 78.472 51.2C78.904 51.2 79.336 51.2 79.768 51.2C80.216 51.2 80.6 51.2 80.92 51.2C81.016 51.2 81.088 51.216 81.136 51.248C81.184 51.264 81.24 51.32 81.304 51.416C81.368 51.512 81.464 51.688 81.592 51.944C81.96 52.632 82.32 53.304 82.672 53.96C83.024 54.6 83.368 55.24 83.704 55.88C84.056 56.52 84.392 57.16 84.712 57.8C85.048 58.424 85.376 59.048 85.696 59.672C86.032 60.296 86.36 60.928 86.68 61.568C87.016 62.192 87.336 62.832 87.64 63.488L86.704 62.84H88.336L87.832 63.128C87.704 62.408 87.592 61.736 87.496 61.112C87.416 60.488 87.344 59.896 87.28 59.336C87.216 58.76 87.168 58.208 87.136 57.68C87.104 57.136 87.08 56.608 87.064 56.096C87.048 55.568 87.04 55.032 87.04 54.488C87.04 54.024 87.04 53.512 87.04 52.952C87.04 52.376 87.04 51.792 87.04 51.2C87.552 51.2 88.056 51.2 88.552 51.2C89.048 51.2 89.544 51.2 90.04 51.2C90.12 51.2 90.184 51.224 90.232 51.272C90.28 51.32 90.304 51.384 90.304 51.464C90.304 52.616 90.304 53.776 90.304 54.944C90.304 56.096 90.304 57.256 90.304 58.424C90.304 59.576 90.304 60.728 90.304 61.88C90.304 63.032 90.304 64.192 90.304 65.36C90.304 65.808 90.304 66.256 90.304 66.704C90.304 67.136 90.304 67.568 90.304 68C89.984 68 89.648 68 89.296 68C88.944 68 88.6 68 88.264 68C87.928 68 87.624 68 87.352 68C87.256 68 87.144 67.968 87.016 67.904C86.888 67.824 86.72 67.6 86.512 67.232C85.808 66.032 85.16 64.912 84.568 63.872C83.976 62.816 83.424 61.808 82.912 60.848C82.4 59.888 81.904 58.944 81.424 58.016C80.96 57.072 80.488 56.104 80.008 55.112L81.088 55.928H79.432L79.864 55.568C79.992 56.32 80.088 57.032 80.152 57.704C80.232 58.376 80.296 59.016 80.344 59.624C80.408 60.216 80.456 60.784 80.488 61.328C80.52 61.856 80.536 62.352 80.536 62.816C80.552 63.28 80.56 63.704 80.56 64.088C80.56 64.712 80.56 65.36 80.56 66.032C80.56 66.688 80.56 67.344 80.56 68ZM97.3934 68C96.8654 68 96.3374 68 95.8094 68C95.2814 68 94.7454 68 94.2014 68C94.1534 68 94.1054 67.992 94.0574 67.976C94.0254 67.944 93.9934 67.912 93.9614 67.88C93.9454 67.848 93.9374 67.8 93.9374 67.736C93.9374 66.44 93.9374 65.184 93.9374 63.968C93.9374 62.752 93.9374 61.544 93.9374 60.344C93.9374 59.144 93.9374 57.936 93.9374 56.72C93.9374 55.488 93.9374 54.24 93.9374 52.976H97.6574L97.3934 53.624C97.3934 54.056 97.3934 54.488 97.3934 54.92C97.3934 55.352 97.3934 55.776 97.3934 56.192C97.3934 57.248 97.3934 58.296 97.3934 59.336C97.3934 60.36 97.3934 61.392 97.3934 62.432C97.3934 63.472 97.3934 64.544 97.3934 65.648C97.3934 66.064 97.3934 66.472 97.3934 66.872C97.3934 67.272 97.3934 67.648 97.3934 68ZM92.7854 51.2H103.105C103.169 51.2 103.217 51.216 103.249 51.248C103.281 51.264 103.305 51.288 103.321 51.32C103.353 51.352 103.369 51.4 103.369 51.464C103.369 51.8 103.369 52.112 103.369 52.4C103.369 52.672 103.369 52.944 103.369 53.216C103.369 53.488 103.369 53.792 103.369 54.128H93.0494C93.0014 54.128 92.9534 54.12 92.9054 54.104C92.8734 54.072 92.8414 54.04 92.8094 54.008C92.7934 53.96 92.7854 53.912 92.7854 53.864C92.7854 53.368 92.7854 52.92 92.7854 52.52C92.7854 52.12 92.7854 51.68 92.7854 51.2ZM95.8814 58.736H102.313C102.393 58.736 102.457 58.76 102.505 58.808C102.553 58.856 102.577 58.92 102.577 59C102.577 59.336 102.577 59.656 102.577 59.96C102.577 60.264 102.577 60.552 102.577 60.824C102.577 61.096 102.577 61.384 102.577 61.688H95.8814V58.736ZM106.029 51.2H117.693C117.773 51.2 117.837 51.224 117.885 51.272C117.949 51.32 117.981 51.384 117.981 51.464C117.981 51.96 117.981 52.408 117.981 52.808C117.981 53.192 117.981 53.632 117.981 54.128H106.317C106.269 54.128 106.221 54.12 106.173 54.104C106.141 54.072 106.109 54.04 106.077 54.008C106.045 53.96 106.029 53.912 106.029 53.864C106.029 53.368 106.029 52.92 106.029 52.52C106.029 52.12 106.029 51.68 106.029 51.2ZM113.733 68C113.205 68 112.677 68 112.149 68C111.621 68 111.085 68 110.541 68C110.461 68 110.397 67.976 110.349 67.928C110.301 67.88 110.277 67.816 110.277 67.736C110.277 66.44 110.277 65.184 110.277 63.968C110.277 62.752 110.277 61.536 110.277 60.32C110.277 59.088 110.277 57.856 110.277 56.624C110.277 55.376 110.277 54.12 110.277 52.856H113.997L113.733 53.504C113.733 53.824 113.733 54.168 113.733 54.536C113.733 54.888 113.733 55.232 113.733 55.568C113.733 55.904 113.733 56.224 113.733 56.528C113.733 57.552 113.733 58.552 113.733 59.528C113.733 60.488 113.733 61.472 113.733 62.48C113.733 63.472 113.733 64.52 113.733 65.624C113.733 66.072 113.733 66.496 113.733 66.896C113.733 67.296 113.733 67.664 113.733 68Z" fill="white"/>
<path fill-rule="evenodd" clip-rule="evenodd" d="M39.6977 6C39.254 5.91011 38.794 5.94549 38.3692 6.10217C37.9445 6.25884 37.5717 6.53065 37.2926 6.88715C37.5012 7.18414 37.791 7.41481 38.1272 7.5516C38.4634 7.68839 38.8318 7.72552 39.1886 7.65857C35.5749 10.8549 31.8171 7.54543 31.8171 7.54543C32.482 7.7115 33.1751 7.72995 33.8479 7.59949C34.5206 7.46903 35.1566 7.19282 35.7111 6.79028C34.2026 4.48714 31.416 5.43086 31.416 5.43086C32.8294 2.26543 30.0009 0 30.0009 0C30.0009 0 27.1723 2.26543 28.5883 5.43686C28.5883 5.43686 25.8009 4.494 24.2932 6.79629C24.8477 7.19883 25.4837 7.47504 26.1564 7.60549C26.8292 7.73595 27.5223 7.7175 28.1872 7.55143C28.1872 7.55143 24.4269 10.8609 20.8157 7.66457C21.1725 7.73153 21.5409 7.69439 21.8771 7.5576C22.2133 7.42081 22.5031 7.19014 22.7117 6.89314C22.4331 6.53497 22.06 6.26163 21.6345 6.10385C21.209 5.94607 20.748 5.91011 20.3032 6C20.3032 6 19.4631 2.94172 16.7143 2.64C18.0479 5.27353 18.9673 8.09701 19.44 11.0109C19.6498 10.9901 19.8595 11.0518 20.0246 11.1828C20.1897 11.3139 20.2974 11.5041 20.3248 11.7131C20.3522 11.9222 20.2972 12.1337 20.1714 12.3029C20.0456 12.4721 19.8589 12.5857 19.6509 12.6197C19.7254 13.3749 19.7691 16.344 19.7691 17.1394C22.9236 16.0456 26.2338 15.4679 29.5723 15.4286C33.1862 15.5227 36.7714 16.0992 40.2326 17.1429C40.2326 16.3474 40.2763 13.3783 40.3509 12.6231C40.2426 12.6124 40.1377 12.5801 40.0422 12.528C39.9467 12.4759 39.8627 12.4052 39.795 12.32C39.7274 12.2348 39.6776 12.1369 39.6486 12.0321C39.6195 11.9273 39.6119 11.8177 39.626 11.7099C39.6401 11.6021 39.6758 11.4982 39.7309 11.4044C39.7859 11.3106 39.8593 11.2288 39.9465 11.1639C40.0338 11.0991 40.1333 11.0524 40.2389 11.0267C40.3446 11.001 40.4544 10.9967 40.5617 11.0143C41.0343 8.10023 41.9533 5.27648 43.2866 2.64257C40.5377 2.94514 39.6977 6 39.6977 6ZM30.0009 12.06C29.7201 12.057 29.4466 11.9709 29.2146 11.8127C28.9827 11.6546 28.8027 11.4313 28.6974 11.171C28.592 10.9108 28.566 10.6252 28.6227 10.3502C28.6793 10.0752 28.816 9.82315 29.0156 9.6257C29.2152 9.42825 29.4688 9.29426 29.7443 9.2406C30.0199 9.18694 30.3052 9.216 30.5643 9.32414C30.8234 9.43227 31.0447 9.61463 31.2004 9.84828C31.3561 10.0819 31.4391 10.3564 31.4392 10.6371C31.4381 10.825 31.4001 11.0108 31.3273 11.184C31.2545 11.3572 31.1482 11.5143 31.0147 11.6465C30.8811 11.7786 30.7229 11.8831 30.5489 11.9541C30.3749 12.025 30.1887 12.061 30.0009 12.06ZM60 47.1429C60 63.7114 46.5685 77.1429 30 77.1429C13.4315 77.1429 0 63.7114 0 47.1429C0 30.5743 13.4315 17.1429 30 17.1429C46.5685 17.1429 60 30.5743 60 47.1429ZM30.8571 26.7143C30.8571 26.162 31.3049 25.7143 31.8571 25.7143H33.2857C33.838 25.7143 34.2857 26.162 34.2857 26.7143V31.4566C35.2789 31.6676 36.2354 31.9299 37.1553 32.2435C38.4969 32.6907 39.7342 33.2422 40.8671 33.8981C42.0298 34.5242 43.0286 35.2248 43.8634 36L41.6273 38.6832C39.928 37.2224 38.0199 36.1193 35.9031 35.3739C33.7863 34.5988 31.3714 34.2112 28.6584 34.2112C26.4224 34.2112 24.7379 34.5988 23.605 35.3739C22.5019 36.1491 21.9503 37.1031 21.9503 38.236C21.9503 38.8621 22.0547 39.4137 22.2634 39.8907C22.472 40.3379 22.8149 40.7702 23.2919 41.1876C23.7988 41.5752 24.4547 41.9478 25.2596 42.3056C26.0646 42.6335 27.0634 42.9913 28.2559 43.3789L36.7081 46.0621C39.4211 46.9267 41.5528 48.0596 43.1031 49.4609C44.6534 50.8621 45.4286 52.636 45.4286 54.7826C45.4286 56.0646 45.1602 57.2721 44.6236 58.405C44.087 59.5081 43.2075 60.477 41.9851 61.3118C40.7925 62.1168 39.2273 62.7578 37.2894 63.2348C36.388 63.4602 35.3868 63.6323 34.2857 63.7512V67.5714C34.2857 68.1237 33.838 68.5714 33.2857 68.5714H31.8571C31.3048 68.5714 30.8571 68.1237 30.8571 67.5714V63.9462C30.6486 63.9489 30.4374 63.9503 30.2236 63.9503C29.8618 63.9503 29.5015 63.9441 29.1429 63.9316V67.5714C29.1429 68.1237 28.6951 68.5714 28.1429 68.5714H26.7143C26.162 68.5714 25.7143 68.1237 25.7143 67.5714V63.6144C25.6671 63.6072 25.6198 63.6 25.5727 63.5926C24.082 63.354 22.6509 63.0112 21.2795 62.564C19.9379 62.1168 18.6857 61.5801 17.523 60.954C16.3901 60.2981 15.4062 59.5826 14.5714 58.8075L16.8075 56.1242C18.5068 57.5851 20.4894 58.7031 22.7553 59.4783C25.0211 60.2236 27.5106 60.5963 30.2236 60.5963C33.2348 60.5963 35.3665 60.1789 36.6186 59.3441C37.8708 58.5093 38.4969 57.3615 38.4969 55.9006C38.4969 54.7677 38.005 53.8137 37.0211 53.0385C36.0373 52.2634 34.3677 51.5031 32.0124 50.7578L23.5155 48.0745C20.713 47.1801 18.5963 46.0472 17.1652 44.6758C15.7342 43.2745 15.0186 41.5006 15.0186 39.354C15.0186 38.2509 15.272 37.1925 15.7789 36.1789C16.3155 35.1354 17.1354 34.2261 18.2385 33.4509C19.3416 32.646 20.7429 32.0199 22.4422 31.5727C23.4227 31.3022 24.5134 31.1084 25.7143 30.9913V26.7143C25.7143 26.162 26.162 25.7143 26.7143 25.7143H28.1429C28.6951 25.7143 29.1429 26.162 29.1429 26.7143V30.8615C29.7166 30.8719 30.288 30.9008 30.8571 30.9481V26.7143Z" fill="url(#paint0_linear_3_3)"/>
<defs>
<linearGradient id="paint0_linear_3_3" x1="-8.9407e-07" y1="77.1429" x2="74.7692" y2="18.989" gradientUnits="userSpaceOnUse">
<stop stop-color="#3C3BF0"/>
<stop offset="1" stop-color="#DC7ABF"/>
</linearGradient>
</defs>
</svg>
